<?xml version="1.0" standalone="no"?>
<!DOCTYPE svg PUBLIC "-//W3C//DTD SVG 20010904//EN"
 "http://www.w3.org/TR/2001/REC-SVG-20010904/DTD/svg10.dtd">
<svg version="1.0" xmlns="http://www.w3.org/2000/svg"
 width="512.000000pt" height="512.000000pt" viewBox="0 0 512.000000 512.000000"
 preserveAspectRatio="xMidYMid meet">
<metadata>
Created by potrace 1.11, written by Peter Selinger 2001-2013
</metadata>
<g transform="translate(0.000000,512.000000) scale(0.100000,-0.100000)"
fill="#000000" stroke="none">
<path d="M100 2560 l0 -2460 2460 0 2460 0 0 2460 0 2460 -2460 0 -2460 0 0
-2460z m754 1405 c17 -8 324 -309 683 -668 568 -568 653 -657 664 -694 27 -93
51 -64 -649 -767 -350 -351 -655 -651 -676 -667 -42 -31 -100 -38 -152 -19
-33 13 -210 183 -230 222 -16 32 -18 86 -4 124 6 14 240 258 520 541 281 284
510 519 510 523 0 4 -229 239 -510 523 -280 283 -514 527 -520 541 -14 38 -12
92 4 124 20 36 183 197 221 216 38 20 98 20 139 1z m3716 -2364 c19 -10 45
-33 58 -51 20 -31 22 -44 22 -189 0 -175 -8 -202 -72 -241 -32 -20 -53 -20
-1066 -20 -1144 0 -1077 -4 -1125 64 -20 28 -22 44 -25 186 -3 178 6 208 74
247 l39 23 1030 0 c984 0 1032 -1 1065 -19z"/>
</g>
</svg>
